<svg width="24" height="24" viewBox="0 0 24 24" fill="none" xmlns="http://www.w3.org/2000/svg">
<path fill-rule="evenodd" clip-rule="evenodd" d="M4 4.90344C4 4.40449 4.40471 4 4.90395 4H19.096C19.5953 4 20 4.40449 20 4.90344V19.0966C20 19.4024 19.8452 19.6875 19.5886 19.8541C19.332 20.0208 19.0084 20.0463 18.7288 19.9221L12 16.9322L5.27118 19.9221C4.99156 20.0463 4.66802 20.0208 4.41142 19.8541C4.15482 19.6875 4 19.4024 4 19.0966V4.90344ZM5.80791 5.80689V17.7062L11.6328 15.118C11.8666 15.0141 12.1334 15.0141 12.3672 15.118L18.1921 17.7062V5.80689H5.80791Z" fill="#3687FF"/>
</svg>
