<svg width="291" height="35" viewBox="0 0 291 35" fill="none" xmlns="http://www.w3.org/2000/svg">
<rect width="291" height="26" rx="6" fill="#ECEFF5"/>
<path d="M74.667 7.49609V17.9961H73.6005V7.49609H74.667ZM65.749 12.0312C65.749 9.75781 66.6396 8.33398 68.0107 8.33984C68.9072 8.33398 69.5986 8.93164 69.9736 9.96875H71.5029V7.69531H72.5576V17.4805H71.5029V14.0938H69.9795C69.5986 15.1367 68.9072 15.7402 68.0107 15.7344C66.6396 15.7402 65.749 14.3105 65.749 12.0312ZM66.7685 12.0312C66.7627 13.7012 67.2314 14.6855 68.0107 14.6797C68.7841 14.6855 69.2763 13.7012 69.2763 12.0312C69.2763 10.3555 68.7841 9.37695 68.0107 9.38281C67.2314 9.37695 66.7627 10.3555 66.7685 12.0312ZM70.208 10.8711C70.2666 11.2285 70.2959 11.6152 70.2959 12.0312C70.2959 12.4414 70.2666 12.8281 70.208 13.1797H71.5029V10.8711H70.208ZM85.5012 9.03125V9.94531H84.0129V11.2812H85.5012V12.2188H84.0129V13.7188H82.8996V7.49609H84.0129V9.03125H85.5012ZM75.927 10.6133C75.9152 9.14258 77.1105 8.10547 78.716 8.10547C80.3273 8.10547 81.5051 9.14258 81.5168 10.6133C81.5051 12.0957 80.3273 13.1211 78.716 13.1211C77.1105 13.1211 75.9152 12.0957 75.927 10.6133ZM77.0168 10.6133C77.0051 11.5566 77.7316 12.1836 78.716 12.1719C79.7004 12.1836 80.4211 11.5566 80.427 10.6133C80.4211 9.67578 79.7004 9.06055 78.716 9.05469C77.7316 9.06055 77.0051 9.67578 77.0168 10.6133ZM77.0754 15.0898V14.1875H84.0129V17.9961H82.8996V15.0898H77.0754ZM89.5385 10.168C89.5268 12.0254 90.6108 13.9297 92.1752 14.6914L91.4838 15.582C90.3413 14.9844 89.4565 13.8125 88.9936 12.4121C88.5248 13.9004 87.6049 15.1602 86.4096 15.7812L85.7182 14.8789C87.3295 14.1055 88.4194 12.0898 88.4252 10.168V8.375H89.5385V10.168ZM92.9604 17.9961V7.49609H94.0737V11.6797H95.7612V12.6289H94.0737V17.9961H92.9604ZM104.72 7.49609V18.0195H103.607V7.49609H104.72ZM96.3884 11.9609C96.3884 9.7168 97.5192 8.28711 99.1071 8.28125C100.666 8.28711 101.814 9.7168 101.814 11.9609C101.814 14.2285 100.666 15.6582 99.1071 15.6523C97.5192 15.6582 96.3884 14.2285 96.3884 11.9609ZM97.4665 11.9609C97.4606 13.6309 98.1286 14.6562 99.1071 14.6562C100.068 14.6562 100.736 13.6309 100.736 11.9609C100.736 10.3145 100.068 9.2832 99.1071 9.27734C98.1286 9.2832 97.4606 10.3145 97.4665 11.9609ZM114.676 13.0859V13.9766H107.363V8.36328H114.57V9.26562H108.488V10.6836H114.348V11.5625H108.488V13.0859H114.676ZM106.156 16.6719V15.7578H115.766V16.6719H106.156ZM125.897 15.8047V16.7422H116.287V15.8047H120.518V13.9648H117.459V10.625H123.623V9.14844H117.436V8.23438H124.725V11.5156H118.561V13.0508H124.971V13.9648H121.619V15.8047H125.897ZM129.84 8.24609C131.498 8.24023 132.694 9.26562 132.7 10.7422C132.694 12.2188 131.498 13.2441 129.84 13.25C128.188 13.2441 126.975 12.2188 126.981 10.7422C126.975 9.26562 128.188 8.24023 129.84 8.24609ZM126.477 14.832C128.387 14.832 131.036 14.8145 133.332 14.4805L133.414 15.2891C131.041 15.7461 128.493 15.7578 126.618 15.7578L126.477 14.832ZM128.082 10.7422C128.071 11.6738 128.821 12.2773 129.84 12.2773C130.86 12.2773 131.61 11.6738 131.61 10.7422C131.61 9.82227 130.86 9.20703 129.84 9.20703C128.821 9.20703 128.071 9.82227 128.082 10.7422ZM133.989 18.0195V7.49609H135.102V18.0195H133.989ZM147.934 7.49609V18.0195H146.821V7.49609H147.934ZM139.602 11.9609C139.602 9.7168 140.733 8.28711 142.321 8.28125C143.88 8.28711 145.028 9.7168 145.028 11.9609C145.028 14.2285 143.88 15.6582 142.321 15.6523C140.733 15.6582 139.602 14.2285 139.602 11.9609ZM140.681 11.9609C140.675 13.6309 141.343 14.6562 142.321 14.6562C143.282 14.6562 143.95 13.6309 143.95 11.9609C143.95 10.3145 143.282 9.2832 142.321 9.27734C141.343 9.2832 140.675 10.3145 140.681 11.9609ZM158.956 12.6055V13.4961H149.37V12.6055H153.624V11.4922H150.566V7.97656H157.773V8.85547H151.667V10.6016H157.843V11.4922H154.702V12.6055H158.956ZM150.507 16.0859C150.507 14.8672 151.872 14.1816 154.151 14.1758C156.413 14.1816 157.767 14.8672 157.773 16.0859C157.767 17.3047 156.413 17.9902 154.151 17.9961C151.872 17.9902 150.507 17.3047 150.507 16.0859ZM151.632 16.0859C151.626 16.7598 152.546 17.1289 154.151 17.1172C155.734 17.1289 156.659 16.7598 156.659 16.0859C156.659 15.4238 155.734 15.043 154.151 15.043C152.546 15.043 151.626 15.4238 151.632 16.0859ZM168.197 7.49609V18.0195H167.083V7.49609H168.197ZM159.865 11.9609C159.865 9.7168 160.995 8.28711 162.583 8.28125C164.142 8.28711 165.29 9.7168 165.29 11.9609C165.29 14.2285 164.142 15.6582 162.583 15.6523C160.995 15.6582 159.865 14.2285 159.865 11.9609ZM160.943 11.9609C160.937 13.6309 161.605 14.6562 162.583 14.6562C163.544 14.6562 164.212 13.6309 164.212 11.9609C164.212 10.3145 163.544 9.2832 162.583 9.27734C161.605 9.2832 160.937 10.3145 160.943 11.9609ZM181.053 7.49609V12.9219H179.928V7.49609H181.053ZM172.498 11.7148C172.896 11.7148 173.33 11.709 173.775 11.7031V9.06641H172.779V8.1875H178.486V9.06641H177.478V11.5508C177.988 11.5156 178.492 11.4688 178.967 11.4102L179.014 12.2188C176.916 12.5352 174.473 12.6113 172.627 12.6055L172.498 11.7148ZM174.08 14.2812V13.4023H181.053V16.0039H175.205V17H181.416V17.8906H174.115V15.1953H179.951V14.2812H174.08ZM174.842 11.6797C175.357 11.6621 175.885 11.6445 176.412 11.6152V9.06641H174.842V11.6797ZM192.063 15.7578V16.6836H182.453V15.7578H184.75V13.0156C183.889 12.541 183.361 11.791 183.367 10.8477C183.361 9.19531 184.984 8.11133 187.234 8.10547C189.49 8.11133 191.113 9.19531 191.113 10.8477C191.113 11.7734 190.609 12.5176 189.766 12.9922V15.7578H192.063ZM184.445 10.8477C184.445 11.9727 185.588 12.7051 187.234 12.7109C188.869 12.7051 190.029 11.9727 190.035 10.8477C190.029 9.7168 188.869 8.99609 187.234 8.99609C185.588 8.99609 184.445 9.7168 184.445 10.8477ZM185.852 15.7578H188.641V13.4258C188.213 13.5254 187.738 13.5781 187.234 13.5781C186.742 13.5781 186.274 13.5254 185.852 13.4258V15.7578ZM200.834 7.49609V10.1328H202.358V11.0703H200.834V13.6133H199.721V7.49609H200.834ZM192.596 9.41797V8.52734H195.174V7.40234H196.287V8.52734H198.854V9.41797H192.596ZM193.17 11.6914C193.164 10.5723 194.196 9.8457 195.725 9.85156C197.237 9.8457 198.268 10.5723 198.268 11.6914C198.268 12.8105 197.237 13.543 195.725 13.5312C194.196 13.543 193.164 12.8105 193.17 11.6914ZM194.119 17.8672V14.0469H195.221V15.0664H199.721V14.0469H200.834V17.8672H194.119ZM194.248 11.6914C194.237 12.3184 194.834 12.7051 195.725 12.7109C196.616 12.7051 197.213 12.3184 197.225 11.6914C197.213 11.0762 196.616 10.6777 195.725 10.6836C194.834 10.6777 194.237 11.0762 194.248 11.6914ZM195.221 16.9766H199.721V15.9336H195.221V16.9766ZM211.434 7.49609V17.9961H210.321V7.49609H211.434ZM203.36 15.3242V8.51562H204.461V14.3633C205.997 14.3574 207.608 14.2227 209.29 13.8828L209.442 14.8203C207.585 15.2012 205.897 15.3301 204.239 15.3242H203.36ZM221.026 7.49609V11.5625H222.714V12.4766H221.026V18.0195H219.913V7.49609H221.026ZM213.292 15.4062V8.50391H218.202V9.40625H214.405V14.4805C216.169 14.4746 217.487 14.3984 218.987 14.1289L219.128 15.0664C217.481 15.3594 216.087 15.4121 214.136 15.4062H213.292ZM224.173 17.082C223.716 17.0762 223.335 16.707 223.341 16.25C223.335 15.793 223.716 15.418 224.173 15.418C224.624 15.418 224.999 15.793 225.005 16.25C224.999 16.707 224.624 17.0762 224.173 17.082Z" fill="#576981"/>
<path d="M146 35L139.072 24.5L152.928 24.5L146 35Z" fill="#ECEFF5"/>
</svg>
