<svg width="24" height="24" viewBox="0 0 24 24" fill="none" xmlns="http://www.w3.org/2000/svg">
<path fill-rule="evenodd" clip-rule="evenodd" d="M16.472 3C16.9665 3 17.3674 3.43703 17.3674 3.97614V5.13769H19.1046C19.5991 5.13769 20 5.57473 20 6.11384V20.0239C20 20.563 19.5991 21 19.1046 21H4.89536C4.40086 21 4 20.563 4 20.0239V6.11384C4 5.57473 4.40086 5.13769 4.89536 5.13769H6.63186V3.97614C6.63186 3.43703 7.03272 3 7.52721 3C8.0217 3 8.42257 3.43703 8.42257 3.97614V5.13769H15.5767V3.97614C15.5767 3.43703 15.9775 3 16.472 3ZM5.79071 10.1453V19.0477H18.2093V10.1453H5.79071ZM7.65234 12.7809C7.65234 12.3226 7.99308 11.9511 8.4134 11.9511H15.5494C15.9697 11.9511 16.3104 12.3226 16.3104 12.7809C16.3104 13.2391 15.9697 13.6106 15.5494 13.6106H8.4134C7.99308 13.6106 7.65234 13.2391 7.65234 12.7809ZM8.4134 15.4849C7.99308 15.4849 7.65234 15.8564 7.65234 16.3146C7.65234 16.7729 7.99308 17.1443 8.4134 17.1443H11.8516C12.2719 17.1443 12.6126 16.7729 12.6126 16.3146C12.6126 15.8564 12.2719 15.4849 11.8516 15.4849H8.4134Z" fill="#3687FF"/>
</svg>
