<svg width="24" height="24" viewBox="0 0 24 24" fill="none" xmlns="http://www.w3.org/2000/svg">
<g clip-path="url(#clip0_909_29568)">
<path fill-rule="evenodd" clip-rule="evenodd" d="M13.6347 3.32229C14.009 2.91618 14.6416 2.89039 15.0477 3.26468L20.4077 8.20468C20.7106 8.48382 20.8113 8.92011 20.6615 9.30378C20.5116 9.68745 20.1419 9.94 19.73 9.94H4C3.44772 9.94 3 9.49229 3 8.94C3 8.38772 3.44772 7.94 4 7.94H17.1694L13.6923 4.73533C13.2862 4.36104 13.2604 3.72841 13.6347 3.32229Z" fill="#3687FF"/>
<path fill-rule="evenodd" clip-rule="evenodd" d="M3.06857 14.3962C3.21842 14.0125 3.58816 13.76 4.00004 13.76H19.73C20.2823 13.76 20.73 14.2077 20.73 14.76C20.73 15.3123 20.2823 15.76 19.73 15.76H6.56032L10.0478 18.9747C10.4539 19.3491 10.4796 19.9817 10.1053 20.3878C9.731 20.7939 9.09836 20.8196 8.69227 20.4453L3.32227 15.4953C3.01943 15.2161 2.91872 14.7798 3.06857 14.3962Z" fill="#3687FF"/>
</g>
<defs>
<clipPath id="clip0_909_29568">
<rect width="24" height="24" fill="white"/>
</clipPath>
</defs>
</svg>
