<svg width="32" height="32" viewBox="0 0 32 32" fill="none" xmlns="http://www.w3.org/2000/svg">
<circle cx="16" cy="16" r="15" fill="#C9DEFF"/>
<path fill-rule="evenodd" clip-rule="evenodd" d="M18.9395 6C19.4917 6 19.9395 6.44772 19.9395 7V9.92993H21.88C22.4323 9.92993 22.88 10.3776 22.88 10.9299V17.6999C22.88 17.982 22.7609 18.2509 22.552 18.4405L18.88 21.7728V24.1799C18.88 24.7322 18.4323 25.1799 17.88 25.1799H14C13.4477 25.1799 13 24.7322 13 24.1799V21.7728L9.32797 18.4405C9.11911 18.2509 9 17.982 9 17.6999V10.9299C9 10.3776 9.44772 9.92993 10 9.92993H11.9395V7C11.9395 6.44772 12.3872 6 12.9395 6C13.4917 6 13.9395 6.44772 13.9395 7V9.92993H17.9395V7C17.9395 6.44772 18.3872 6 18.9395 6ZM11 11.9299V17.257L14.672 20.5894C14.8809 20.779 15 21.0479 15 21.3299V23.1799H16.88V21.3299C16.88 21.0479 16.9991 20.779 17.208 20.5894L20.88 17.257V11.9299H11Z" fill="#3687FF"/>
</svg>
