<svg width="30" height="30" viewBox="0 0 30 30" fill="none" xmlns="http://www.w3.org/2000/svg">
<path d="M19.1072 26.25L11.9644 23.625L6.42868 25.875C6.03185 26.0417 5.66479 25.9946 5.32749 25.7337C4.99018 25.4729 4.82153 25.1242 4.82153 24.6875V7.1875C4.82153 6.91667 4.89614 6.67708 5.04534 6.46875C5.19455 6.26042 5.39772 6.10417 5.65487 6L11.9644 3.75L19.1072 6.375L24.643 4.125C25.0398 3.95833 25.4068 4.00542 25.7442 4.26625C26.0815 4.52708 26.2501 4.87583 26.2501 5.3125V22.8125C26.2501 23.0833 26.1755 23.3229 26.0263 23.5312C25.8771 23.7396 25.6739 23.8958 25.4168 24L19.1072 26.25ZM17.9168 23.1875V8.5625L13.1549 6.8125V21.4375L17.9168 23.1875ZM20.2977 23.1875L23.8692 21.9375V7.125L20.2977 8.5625V23.1875ZM7.20249 22.875L10.7739 21.4375V6.8125L7.20249 8.0625V22.875Z" fill="white"/>
</svg>
