<svg width="24" height="25" viewBox="0 0 24 25" fill="none" xmlns="http://www.w3.org/2000/svg">
<path fill-rule="evenodd" clip-rule="evenodd" d="M11.64 4.5C7.97283 4.5 5 7.47284 5 11.14C5 14.8072 7.97283 17.78 11.64 17.78C15.3072 17.78 18.28 14.8072 18.28 11.14C18.28 7.47284 15.3072 4.5 11.64 4.5ZM3 11.14C3 6.36828 6.86826 2.5 11.64 2.5C16.4117 2.5 20.28 6.36828 20.28 11.14C20.28 15.9118 16.4117 19.78 11.64 19.78C6.86826 19.78 3 15.9118 3 11.14Z" fill="#576981"/>
<path fill-rule="evenodd" clip-rule="evenodd" d="M12.4398 8.24995C12.4398 7.80812 12.0817 7.44995 11.6398 7.44995C11.198 7.44995 10.8398 7.80812 10.8398 8.24995V10.3401H8.7502C8.30837 10.3401 7.9502 10.6983 7.9502 11.1401C7.9502 11.5819 8.30837 11.9401 8.7502 11.9401H10.8398V14.03C10.8398 14.4718 11.198 14.83 11.6398 14.83C12.0817 14.83 12.4398 14.4718 12.4398 14.03V11.9401H14.5302C14.972 11.9401 15.3302 11.5819 15.3302 11.1401C15.3302 10.6983 14.972 10.3401 14.5302 10.3401H12.4398V8.24995Z" fill="#576981"/>
<path d="M5.90999 16.87L10.86 21.82C11.19 22.15 11.71 22.16 12.05 21.84L16.97 17.25L16.56 16.84C13.36 18.77 9.32999 18.65 6.23999 16.54L5.90999 16.87Z" fill="#576981" stroke="#576981" stroke-miterlimit="10"/>
</svg>
