<svg width="155" height="52" viewBox="0 0 155 52" fill="none" xmlns="http://www.w3.org/2000/svg">
<g filter="url(#filter0_d_2236_63129)">
<rect x="8" y="16" width="139" height="26" rx="6" fill="white"/>
<path d="M16.7855 33L14.43 24.5156H15.7894L17.4417 31.0781H17.512L19.2347 24.5156H20.5706L22.2933 31.0781H22.3636L24.0159 24.5156H25.3753L23.0198 33H21.7191L19.9378 26.6602H19.8675L18.0863 33H16.7855ZM33.1275 28.7578C33.1275 31.4707 31.4986 33.1172 29.3072 33.1172C27.0982 33.1172 25.4752 31.4648 25.4752 28.7578C25.4752 26.0449 27.0982 24.3984 29.3072 24.3984C31.4986 24.3984 33.1275 26.0449 33.1275 28.7578ZM26.7525 28.7578C26.7584 30.8203 27.8423 31.9395 29.3072 31.9336C30.7603 31.9395 31.8443 30.8203 31.8502 28.7578C31.8443 26.6953 30.7603 25.5762 29.3072 25.582C27.8423 25.5762 26.7584 26.6953 26.7525 28.7578ZM34.3406 33V24.5156H35.6297V28.5586H35.7352L39.2859 24.5156H40.9031L37.4813 28.3359L40.9148 33H39.3563L36.6258 29.2148L35.6297 30.3633V33H34.3406ZM42.4561 33H41.085L44.1319 24.5156H45.6202L48.6788 33H47.3077L46.5342 30.7617H43.2295L42.4561 33ZM43.5987 29.6836H46.1592L44.9053 26.0625H44.8467L43.5987 29.6836ZM48.0755 25.6289V24.5156H54.6497V25.6289H52.013V33H50.7239V25.6289H48.0755ZM64.2769 23.4961V33.9961H63.2105V23.4961H64.2769ZM55.3589 28.0312C55.3589 25.7578 56.2495 24.334 57.6206 24.3398C58.898 24.334 59.7593 25.5469 59.8882 27.5156H61.0777V23.6953H62.1441V33.4805H61.0777V28.418H59.8941C59.7945 30.4688 58.9214 31.7402 57.6206 31.7344C56.2495 31.7402 55.3589 30.3105 55.3589 28.0312ZM56.3902 28.0312C56.3902 29.7012 56.8648 30.6855 57.6206 30.6797C58.3941 30.6855 58.8745 29.7012 58.8745 28.0312C58.8745 26.3555 58.3941 25.377 57.6206 25.3828C56.8648 25.377 56.3902 26.3555 56.3902 28.0312ZM74.3963 23.4961V33.9961H73.3416V23.4961H74.3963ZM65.3377 30.9609C67.5642 29.6367 68.6306 27.873 68.824 25.7109H65.8298V24.7969H69.9314C69.9255 25.8223 69.7849 26.8008 69.4627 27.7148H71.1267V23.7656H72.1814V33.4805H71.1267V28.6055H69.0759C68.4548 29.8242 67.4529 30.8906 65.9705 31.7578L65.3377 30.9609ZM87.2053 23.4961V33.9961H86.1389V23.4961H87.2053ZM78.0413 31.1016C79.5295 30.2051 80.2854 28.2949 80.2913 26.4258V25.582H78.3577V24.6797H83.1623V25.582H81.3577V26.4258C81.3577 28.2188 82.0842 30.0176 83.5608 30.8672L82.8928 31.6875C81.8909 31.0898 81.2053 30.0176 80.8362 28.752C80.4612 30.123 79.7463 31.2949 78.7209 31.9336L78.0413 31.1016ZM82.3889 28.125V27.2109H84.0178V23.7188H85.0725V33.4688H84.0178V28.125H82.3889ZM96.5747 23.4844V26.625H98.0981V27.5625H96.5747V31.207H95.4614V23.4844H96.5747ZM88.4887 26.8242C88.477 25.2949 89.6958 24.2168 91.2778 24.2109C92.8657 24.2168 94.0669 25.2949 94.0786 26.8242C94.0669 28.3535 92.8657 29.4434 91.2778 29.4375C89.6958 29.4434 88.477 28.3535 88.4887 26.8242ZM89.5786 26.8242C89.5669 27.8027 90.3169 28.4648 91.2778 28.4648C92.2505 28.4648 92.9829 27.8027 92.9887 26.8242C92.9829 25.8457 92.2505 25.1836 91.2778 25.1836C90.3169 25.1836 89.5669 25.8457 89.5786 26.8242ZM89.9184 33.7734V30.3984H91.0317V32.8711H97.02V33.7734H89.9184ZM103.647 25.2305V26.1328H98.4323V25.2305H100.495V23.8008H101.596V25.2305H103.647ZM98.7722 29.1797C98.7663 27.7676 99.7273 26.7656 101.046 26.7656C102.376 26.7656 103.325 27.7676 103.331 29.1797C103.325 30.6152 102.376 31.623 101.046 31.6172C99.7273 31.623 98.7663 30.6152 98.7722 29.1797ZM99.7566 29.1797C99.7507 30.0703 100.29 30.668 101.046 30.668C101.801 30.668 102.346 30.0703 102.346 29.1797C102.346 28.3066 101.801 27.6973 101.046 27.6914C100.29 27.6973 99.7507 28.3066 99.7566 29.1797ZM104.128 33.5039V23.7305H105.182V27.8672H106.389V23.4961H107.444V33.9961H106.389V28.7812H105.182V33.5039H104.128ZM118.161 29.4141V30.3164H113.895V33.9844H112.806V30.3164H108.587V29.4141H118.161ZM109.126 27.7383C111.083 27.4688 112.712 26.3027 112.747 25.0078H109.478V24.1172H117.259V25.0078H114.013C114.03 26.3027 115.647 27.4688 117.634 27.7383L117.224 28.6172C115.501 28.3477 114.013 27.498 113.374 26.3027C112.729 27.498 111.247 28.3477 109.548 28.6172L109.126 27.7383ZM121.917 26.3672C121.917 28.043 122.62 29.8301 124.027 30.6914L123.405 31.5469C122.421 30.9551 121.759 29.9062 121.396 28.6934C121.015 30.0234 120.288 31.1602 119.269 31.7812L118.577 30.9492C120.06 30.0586 120.845 28.2012 120.839 26.4141V24.457H121.917V26.3672ZM122.89 28.1133V27.1875H124.519V23.6953H125.573V33.4805H124.519V28.1133H122.89ZM126.687 33.9961V23.4961H127.753V33.9961H126.687ZM138.458 31.7578V32.6836H128.849V31.7578H131.146V29.0156C130.285 28.541 129.757 27.791 129.763 26.8477C129.757 25.1953 131.38 24.1113 133.63 24.1055C135.886 24.1113 137.509 25.1953 137.509 26.8477C137.509 27.7734 137.005 28.5176 136.162 28.9922V31.7578H138.458ZM130.841 26.8477C130.841 27.9727 131.984 28.7051 133.63 28.7109C135.265 28.7051 136.425 27.9727 136.431 26.8477C136.425 25.7168 135.265 24.9961 133.63 24.9961C131.984 24.9961 130.841 25.7168 130.841 26.8477ZM132.247 31.7578H135.037V29.4258C134.609 29.5254 134.134 29.5781 133.63 29.5781C133.138 29.5781 132.669 29.5254 132.247 29.4258V31.7578ZM140.175 33.082C139.718 33.0762 139.338 32.707 139.343 32.25C139.338 31.793 139.718 31.418 140.175 31.418C140.627 31.418 141.002 31.793 141.007 32.25C141.002 32.707 140.627 33.0762 140.175 33.082Z" fill="#0066FF"/>
<path d="M133 6L139.928 16.5H126.072L133 6Z" fill="white"/>
</g>
<defs>
<filter id="filter0_d_2236_63129" x="0" y="0" width="155" height="52" filterUnits="userSpaceOnUse" color-interpolation-filters="sRGB">
<feFlood flood-opacity="0" result="BackgroundImageFix"/>
<feColorMatrix in="SourceAlpha" type="matrix" values="0 0 0 0 0 0 0 0 0 0 0 0 0 0 0 0 0 0 127 0" result="hardAlpha"/>
<feOffset dy="2"/>
<feGaussianBlur stdDeviation="4"/>
<feComposite in2="hardAlpha" operator="out"/>
<feColorMatrix type="matrix" values="0 0 0 0 0 0 0 0 0 0 0 0 0 0 0 0 0 0 0.15 0"/>
<feBlend mode="normal" in2="BackgroundImageFix" result="effect1_dropShadow_2236_63129"/>
<feBlend mode="normal" in="SourceGraphic" in2="effect1_dropShadow_2236_63129" result="shape"/>
</filter>
</defs>
</svg>
