<svg width="24" height="24" viewBox="0 0 24 24" fill="none" xmlns="http://www.w3.org/2000/svg">
<path d="M9 21C9 20.4477 9.44772 20 10 20H14C14.5523 20 15 20.4477 15 21C15 21.5523 14.5523 22 14 22H10C9.44772 22 9 21.5523 9 21ZM16.906 13.712C17.936 12.506 19 11.259 19 9C19 5.141 15.859 2 12 2C8.141 2 5 5.141 5 9C5 11.285 6.067 12.528 7.101 13.73C7.459 14.148 7.83 14.581 8.185 15.079C8.329 15.285 8.565 16.075 8.776 17C8.34743 17 8 17.3474 8 17.776V18C8 18.5523 8.44772 19 9 19H15C15.5523 19 16 18.5523 16 18V17.774C16 17.3465 15.6535 17 15.226 17C15.439 16.073 15.676 15.281 15.819 15.075C16.171 14.572 16.545 14.135 16.906 13.712ZM14.182 13.925C13.748 14.542 13.386 16 13.176 17H10.825C10.616 15.998 10.253 14.537 9.814 13.92C9.43876 13.4043 9.03966 12.9065 8.618 12.428C7.644 11.294 7 10.544 7 9C7 6.243 9.243 4 12 4C14.757 4 17 6.243 17 9C17 10.521 16.357 11.274 15.385 12.413C15.012 12.851 14.589 13.346 14.182 13.925Z" fill="#3687FF"/>
</svg>
