<svg width="24" height="24" viewBox="0 0 24 24" fill="none" xmlns="http://www.w3.org/2000/svg">
<path fill-rule="evenodd" clip-rule="evenodd" d="M3.38965 12.3299C3.38965 7.39799 7.38775 3.3999 12.3196 3.3999C17.2515 3.3999 21.2496 7.39799 21.2496 12.3299C21.2496 17.2618 17.2516 21.2599 12.3196 21.2599C7.38774 21.2599 3.38965 17.2618 3.38965 12.3299ZM12.3205 8.52979C12.7623 8.52979 13.1205 8.88796 13.1205 9.32979V11.5298H15.3205C15.7623 11.5298 16.1205 11.888 16.1205 12.3298C16.1205 12.7716 15.7623 13.1298 15.3205 13.1298H13.1205V15.3298C13.1205 15.7716 12.7623 16.1298 12.3205 16.1298C11.8787 16.1298 11.5205 15.7716 11.5205 15.3298V13.1298H9.32051C8.87868 13.1298 8.52051 12.7716 8.52051 12.3298C8.52051 11.888 8.87868 11.5298 9.32051 11.5298H11.5205V9.32979C11.5205 8.88796 11.8787 8.52979 12.3205 8.52979Z" fill="#3687FF"/>
</svg>
