<svg width="20" height="20" viewBox="0 0 20 20" fill="none" xmlns="http://www.w3.org/2000/svg">
<path d="M10.0001 2.00001C6.77508 2.00001 4.16675 4.60834 4.16675 7.83334C4.16675 12.2083 10.0001 18.6667 10.0001 18.6667C10.0001 18.6667 15.8334 12.2083 15.8334 7.83334C15.8334 4.60834 13.2251 2.00001 10.0001 2.00001ZM10.0001 9.91667C9.44755 9.91667 8.91764 9.69718 8.52694 9.30648C8.13624 8.91578 7.91675 8.38588 7.91675 7.83334C7.91675 7.28081 8.13624 6.7509 8.52694 6.3602C8.91764 5.9695 9.44755 5.75001 10.0001 5.75001C10.5526 5.75001 11.0825 5.9695 11.4732 6.3602C11.8639 6.7509 12.0834 7.28081 12.0834 7.83334C12.0834 8.38588 11.8639 8.91578 11.4732 9.30648C11.0825 9.69718 10.5526 9.91667 10.0001 9.91667Z" fill="#9FAABA"/>
</svg>
