<svg width="24" height="24" viewBox="0 0 24 24" fill="none" xmlns="http://www.w3.org/2000/svg">
<path fill-rule="evenodd" clip-rule="evenodd" d="M7.46973 3.80991C7.46973 3.31286 7.87267 2.90991 8.36973 2.90991H16.5197C16.7622 2.90991 16.9944 3.00776 17.1638 3.18128L20.0138 6.1013C20.1779 6.26941 20.2697 6.49501 20.2697 6.72993V16.8099C20.2697 17.307 19.8668 17.7099 19.3697 17.7099H8.36973C7.87267 17.7099 7.46973 17.307 7.46973 16.8099V3.80991ZM9.26973 4.70991V15.9099H18.4697V7.78995H16.0993C15.6693 7.78995 15.3193 7.43995 15.3193 7.00995V4.70991H9.26973ZM5.15977 6.1499C5.65682 6.1499 6.05977 6.55285 6.05977 7.0499V19.1499H16.1598C16.6568 19.1499 17.0598 19.5528 17.0598 20.0499C17.0598 20.547 16.6568 20.9499 16.1598 20.9499H5.15977C4.66271 20.9499 4.25977 20.547 4.25977 20.0499V7.0499C4.25977 6.55285 4.66271 6.1499 5.15977 6.1499Z" fill="#3687FF"/>
<path fill-rule="evenodd" clip-rule="evenodd" d="M7.20996 3.9C7.20996 3.40294 7.6129 3 8.10996 3H16.26C16.5024 3 16.7347 3.09784 16.904 3.27137L19.754 6.19139C19.9181 6.3595 20.01 6.5851 20.01 6.82001V16.9C20.01 17.3971 19.607 17.8 19.11 17.8H8.10996C7.6129 17.8 7.20996 17.3971 7.20996 16.9V3.9ZM9.00996 4.8V16H18.21V7.88004H15.8396C15.4096 7.88004 15.0596 7.53004 15.0596 7.10004V4.8H9.00996ZM4.9 6.23999C5.39706 6.23999 5.8 6.64293 5.8 7.13999V19.24H15.9C16.3971 19.24 16.8 19.6429 16.8 20.14C16.8 20.637 16.3971 21.04 15.9 21.04H4.9C4.40294 21.04 4 20.637 4 20.14V7.13999C4 6.64293 4.40294 6.23999 4.9 6.23999Z" fill="#3687FF"/>
</svg>
