<svg width="24" height="24" viewBox="0 0 24 24" fill="none" xmlns="http://www.w3.org/2000/svg">
<path fill-rule="evenodd" clip-rule="evenodd" d="M11.9707 3C12.1084 3 12.2395 3.02782 12.3589 3.07814C16.981 3.27617 20.693 6.98772 20.8917 11.6097C20.9426 11.7296 20.9707 11.8615 20.9707 12C20.9707 12.1385 20.9426 12.2704 20.8917 12.3903C20.6928 17.0118 16.9814 20.723 12.3598 20.9215C12.2402 20.972 12.1087 21 11.9707 21C11.8327 21 11.7013 20.9721 11.5817 20.9215C6.92105 20.7221 3.18565 16.9504 3.04419 12.2749C3.01547 12.1817 3 12.0826 3 11.98C3 11.8756 3.01599 11.775 3.04564 11.6804C3.2093 7.02513 6.93628 3.27639 11.5827 3.07808C11.702 3.02779 11.8331 3 11.9707 3ZM12.9707 18.8581V16C12.9707 15.4477 12.523 15 11.9707 15C11.4184 15 10.9707 15.4477 10.9707 16V18.8583C7.93681 18.4201 5.53872 16.0166 5.10882 12.98H8C8.55228 12.98 9 12.5323 9 11.98C9 11.4277 8.55228 10.98 8 10.98H5.11455C5.55964 7.96217 7.95003 5.57762 10.9707 5.14135V8C10.9707 8.55228 11.4184 9 11.9707 9C12.523 9 12.9707 8.55228 12.9707 8V5.14154C15.9974 5.57928 18.3911 7.97316 18.8284 11H15.9707C15.4184 11 14.9707 11.4477 14.9707 12C14.9707 12.5523 15.4184 13 15.9707 13H18.8284C18.3909 16.0267 15.9973 18.4204 12.9707 18.8581Z" fill="white"/>
</svg>
