<svg width="24" height="24" viewBox="0 0 24 24" fill="none" xmlns="http://www.w3.org/2000/svg">
<path d="M12 21.9999C11.7412 21.9999 11.5242 21.9126 11.3489 21.7378C11.1735 21.5631 11.0861 21.3461 11.0868 21.0867V20.1735C9.18417 19.9604 7.5516 19.1728 6.18904 17.8109C4.82648 16.4489 4.03896 14.8164 3.82648 12.9132H2.91324C2.65449 12.9132 2.43775 12.8255 2.26301 12.6502C2.08828 12.4748 2.00061 12.2581 2 11.9999C2 11.7412 2.08767 11.5241 2.26301 11.3488C2.43836 11.1735 2.6551 11.0861 2.91324 11.0867H3.82648C4.03957 9.18411 4.8274 7.55154 6.18995 6.18898C7.55251 4.82642 9.18478 4.0389 11.0868 3.82642V2.91318C11.0868 2.65443 11.1744 2.43769 11.3498 2.26295C11.5251 2.08822 11.7419 2.00055 12 1.99994C12.2587 1.99994 12.4758 2.08761 12.6511 2.26295C12.8265 2.4383 12.9138 2.65504 12.9132 2.91318V3.82642C14.8158 4.03951 16.4484 4.82734 17.811 6.18989C19.1735 7.55245 19.961 9.18472 20.1735 11.0867H21.0868C21.3455 11.0867 21.5626 11.1744 21.7379 11.3497C21.9132 11.5251 22.0006 11.7418 22 11.9999C22 12.2587 21.9126 12.4757 21.7379 12.6511C21.5632 12.8264 21.3461 12.9138 21.0868 12.9132H20.1735C19.9604 14.8158 19.1729 16.4483 17.811 17.8109C16.449 19.1735 14.8164 19.961 12.9132 20.1735V21.0867C12.9132 21.3454 12.8256 21.5625 12.6502 21.7378C12.4749 21.9132 12.2581 22.0005 12 21.9999ZM12 18.3926C13.7656 18.3926 15.2724 17.7686 16.5205 16.5205C17.7686 15.2724 18.3927 13.7655 18.3927 11.9999C18.3927 10.2343 17.7686 8.72749 16.5205 7.47939C15.2724 6.23129 13.7656 5.60724 12 5.60724C10.2344 5.60724 8.72755 6.23129 7.47945 7.47939C6.23135 8.72749 5.60731 10.2343 5.60731 11.9999C5.60731 13.7655 6.23135 15.2724 7.47945 16.5205C8.72755 17.7686 10.2344 18.3926 12 18.3926ZM12 15.6529C10.9954 15.6529 10.1355 15.2952 9.42009 14.5798C8.70472 13.8645 8.34703 13.0045 8.34703 11.9999C8.34703 10.9954 8.70472 10.1354 9.42009 9.42003C10.1355 8.70466 10.9954 8.34697 12 8.34697C13.0046 8.34697 13.8645 8.70466 14.5799 9.42003C15.2953 10.1354 15.653 10.9954 15.653 11.9999C15.653 13.0045 15.2953 13.8645 14.5799 14.5798C13.8645 15.2952 13.0046 15.6529 12 15.6529ZM12 13.8264C12.5023 13.8264 12.9324 13.6477 13.2904 13.2903C13.6484 12.933 13.8271 12.5028 13.8265 11.9999C13.8265 11.4977 13.6475 11.0675 13.2895 10.7095C12.9315 10.3515 12.5017 10.1728 12 10.1735C11.4977 10.1735 11.0676 10.3524 10.7096 10.7104C10.3516 11.0684 10.1729 11.4983 10.1735 11.9999C10.1735 12.5022 10.3525 12.9324 10.7105 13.2903C11.0685 13.6483 11.4983 13.827 12 13.8264Z" fill="#F6F6F9"/>
</svg>
