<svg width="25" height="24" viewBox="0 0 25 24" fill="none" xmlns="http://www.w3.org/2000/svg">
<path d="M12.5 12C11.4 12 10.4583 11.6083 9.675 10.825C8.89167 10.0417 8.5 9.1 8.5 8C8.5 6.9 8.89167 5.95833 9.675 5.175C10.4583 4.39167 11.4 4 12.5 4C13.6 4 14.5417 4.39167 15.325 5.175C16.1083 5.95833 16.5 6.9 16.5 8C16.5 9.1 16.1083 10.0417 15.325 10.825C14.5417 11.6083 13.6 12 12.5 12ZM4.5 20V17.2C4.5 16.6333 4.646 16.1123 4.938 15.637C5.23 15.1617 5.61733 14.7993 6.1 14.55C7.13333 14.0333 8.18333 13.6457 9.25 13.387C10.3167 13.1283 11.4 12.9993 12.5 13C13.6 13 14.6833 13.1293 15.75 13.388C16.8167 13.6467 17.8667 14.034 18.9 14.55C19.3833 14.8 19.771 15.1627 20.063 15.638C20.355 16.1133 20.5007 16.634 20.5 17.2V20H4.5Z" fill="#0066FF"/>
</svg>
