<svg width="106" height="14" viewBox="0 0 106 14" fill="none" xmlns="http://www.w3.org/2000/svg">
<path d="M42.2605 0C42.3636 0.287296 42.4594 0.585641 42.5496 0.891353C44.7246 1.57276 46.279 2.8969 46.6399 4.65566C47.0911 6.8509 45.5644 9.16031 42.9272 10.7625C42.7541 11.6263 42.5312 12.4421 42.2623 13.1953C46.1906 12.013 48.9014 9.50286 48.9014 6.59859C48.9014 3.69433 46.1906 1.18233 42.2623 0.00184159L42.2605 0Z" fill="url(#paint0_linear_737_6769)"/>
<path d="M31.8103 12.304C29.6353 11.6226 28.081 10.2984 27.72 8.53968C27.2688 6.34445 28.7955 4.03503 31.4328 2.4328C31.6059 1.56908 31.8287 0.75323 32.0976 0C28.1694 1.18233 25.4585 3.69249 25.4585 6.59675C25.4585 9.50101 28.1694 12.013 32.0976 13.1935C31.9945 12.9062 31.8987 12.6079 31.8085 12.3021L31.8103 12.304Z" fill="url(#paint1_linear_737_6769)"/>
<path d="M19.3161 13.1525L24.7318 0.190741L24.6777 0.11853H21.1755L17.583 9.25316L14.0086 0.11853H10.7411L7.16665 9.27121L3.59223 0.11853H0.0539137L-0.000244141 0.190741L5.41554 13.1525H8.75528L12.3658 3.94569L15.9763 13.1525H19.3161Z" fill="#4F95FF"/>
<path d="M68.2855 0.190741L68.2314 0.11853H63.4835L54.9266 5.64263V0.11853H51.4966V13.1525H54.9266V9.12679L57.9053 7.141L64.2237 13.1525H68.7188L68.7729 13.0803L60.559 5.35379L68.2855 0.190741Z" fill="#4F95FF"/>
<path d="M88.5064 13.1525L80.6174 0.11853H77.0791L68.7749 13.1525H72.4577L74.0824 10.5349H83.2892L84.8237 13.1525H88.5064ZM75.7071 7.88116L78.8122 2.88058L81.7367 7.88116H75.7071Z" fill="#4F95FF"/>
<path d="M105.011 2.77227V0.11853H86.2542V2.77227H93.9086V13.1525H97.3385V2.77227H105.011Z" fill="#4F95FF"/>
<defs>
<linearGradient id="paint0_linear_737_6769" x1="45.581" y1="0" x2="45.581" y2="13.1953" gradientUnits="userSpaceOnUse">
<stop stop-color="#6CA7FF"/>
<stop offset="1" stop-color="#0066FF"/>
</linearGradient>
<linearGradient id="paint1_linear_737_6769" x1="28.7781" y1="0" x2="28.7781" y2="13.1935" gradientUnits="userSpaceOnUse">
<stop stop-color="#0066FF"/>
<stop offset="1" stop-color="#4F95FF"/>
</linearGradient>
</defs>
</svg>
