<svg width="106" height="14" viewBox="0 0 106 14" fill="none" xmlns="http://www.w3.org/2000/svg">
<path d="M42.2605 0.402344C42.3636 0.689639 42.4594 0.987985 42.5496 1.2937C44.7246 1.9751 46.279 3.29924 46.6399 5.05801C47.0911 7.25324 45.5644 9.56266 42.9272 11.1649C42.7541 12.0286 42.5312 12.8445 42.2623 13.5977C46.1906 12.4154 48.9014 9.9052 48.9014 7.00094C48.9014 4.09667 46.1906 1.58468 42.2623 0.404185L42.2605 0.402344Z" fill="url(#paint0_linear_653_23789)"/>
<path d="M31.8103 12.7063C29.6353 12.0249 28.081 10.7008 27.72 8.94202C27.2688 6.74679 28.7955 4.43737 31.4328 2.83515C31.6059 1.97142 31.8287 1.15557 32.0976 0.402344C28.1694 1.58468 25.4585 4.09483 25.4585 6.99909C25.4585 9.90336 28.1694 12.4154 32.0976 13.5958C31.9945 13.3085 31.8987 13.0102 31.8085 12.7045L31.8103 12.7063Z" fill="url(#paint1_linear_653_23789)"/>
<path d="M19.3161 13.5549L24.7318 0.593085L24.6777 0.520874H21.1755L17.583 9.6555L14.0086 0.520874H10.7411L7.16665 9.67355L3.59223 0.520874H0.0539137L-0.000244141 0.593085L5.41554 13.5549H8.75528L12.3658 4.34803L15.9763 13.5549H19.3161Z" fill="#0066FF"/>
<path d="M68.2855 0.593085L68.2314 0.520874H63.4835L54.9266 6.04498V0.520874H51.4966V13.5549H54.9266V9.52913L57.9053 7.54334L64.2237 13.5549H68.7188L68.7729 13.4827L60.559 5.75613L68.2855 0.593085Z" fill="#0066FF"/>
<path d="M88.5064 13.5549L80.6174 0.520874H77.0791L68.7749 13.5549H72.4577L74.0824 10.9372H83.2892L84.8237 13.5549H88.5064ZM75.7071 8.2835L78.8122 3.28293L81.7367 8.2835H75.7071Z" fill="#0066FF"/>
<path d="M105.011 3.17461V0.520874H86.2542V3.17461H93.9086V13.5549H97.3385V3.17461H105.011Z" fill="#0066FF"/>
<defs>
<linearGradient id="paint0_linear_653_23789" x1="45.581" y1="0.402344" x2="45.581" y2="13.5977" gradientUnits="userSpaceOnUse">
<stop stop-color="#5C9DFF"/>
<stop offset="1" stop-color="#0066FF"/>
</linearGradient>
<linearGradient id="paint1_linear_653_23789" x1="28.7781" y1="0.402344" x2="28.7781" y2="13.5958" gradientUnits="userSpaceOnUse">
<stop stop-color="#0066FF"/>
<stop offset="1" stop-color="#5C9DFF"/>
</linearGradient>
</defs>
</svg>
