<svg width="24" height="25" viewBox="0 0 24 25" fill="none" xmlns="http://www.w3.org/2000/svg">
<path fill-rule="evenodd" clip-rule="evenodd" d="M5.2002 12.9398C5.2002 9.11242 8.30285 6.00977 12.1302 6.00977C15.9575 6.00977 19.0602 9.11243 19.0602 12.9398C19.0602 16.7671 15.9575 19.8698 12.1302 19.8698C8.30286 19.8698 5.2002 16.7671 5.2002 12.9398ZM12.1302 4.00977C7.19829 4.00977 3.2002 8.00786 3.2002 12.9398C3.2002 17.8717 7.19828 21.8698 12.1302 21.8698C17.0621 21.8698 21.0602 17.8717 21.0602 12.9398C21.0602 8.00785 17.0621 4.00977 12.1302 4.00977ZM13.0295 8.15C13.0295 7.65294 12.6265 7.25 12.1295 7.25C11.6324 7.25 11.2295 7.65294 11.2295 8.15V12.94C11.2295 13.177 11.323 13.4044 11.4896 13.5729L14.1896 16.3029C14.5391 16.6563 15.109 16.6594 15.4624 16.3099C15.8158 15.9604 15.8189 15.3905 15.4694 15.0371L13.0295 12.5701V8.15Z" fill="#576981"/>
</svg>
