<svg width="21" height="22" viewBox="0 0 21 22" fill="none" xmlns="http://www.w3.org/2000/svg">
<path d="M13.1775 15.7775L9.45 12.05V6.8H11.55V11.1838L14.6475 14.2812L13.1775 15.7775ZM9.45 4.7V2.6H11.55V4.7H9.45ZM16.8 12.05V9.95H18.9V12.05H16.8ZM9.45 19.4V17.3H11.55V19.4H9.45ZM2.1 12.05V9.95H4.2V12.05H2.1ZM10.5 21.5C9.0475 21.5 7.6825 21.2242 6.405 20.6726C5.1275 20.121 4.01625 19.3731 3.07125 18.4287C2.12625 17.4837 1.3783 16.3725 0.8274 15.095C0.2765 13.8175 0.0007 12.4525 0 11C0 9.5475 0.2758 8.1825 0.8274 6.905C1.379 5.6275 2.12695 4.51625 3.07125 3.57125C4.01625 2.62625 5.1275 1.8783 6.405 1.3274C7.6825 0.7765 9.0475 0.5007 10.5 0.5C11.9525 0.5 13.3175 0.7758 14.595 1.3274C15.8725 1.879 16.9837 2.62695 17.9287 3.57125C18.8738 4.51625 19.622 5.6275 20.1736 6.905C20.7252 8.1825 21.0007 9.5475 21 11C21 12.4525 20.7242 13.8175 20.1726 15.095C19.621 16.3725 18.8731 17.4837 17.9287 18.4287C16.9837 19.3738 15.8725 20.122 14.595 20.6736C13.3175 21.2252 11.9525 21.5007 10.5 21.5ZM10.5 19.4C12.845 19.4 14.8312 18.5862 16.4587 16.9587C18.0862 15.3312 18.9 13.345 18.9 11C18.9 8.655 18.0862 6.66875 16.4587 5.04125C14.8312 3.41375 12.845 2.6 10.5 2.6C8.155 2.6 6.16875 3.41375 4.54125 5.04125C2.91375 6.66875 2.1 8.655 2.1 11C2.1 13.345 2.91375 15.3312 4.54125 16.9587C6.16875 18.5862 8.155 19.4 10.5 19.4Z" fill="#576981"/>
</svg>
