<svg width="30" height="30" viewBox="0 0 30 30" fill="none" xmlns="http://www.w3.org/2000/svg">
<circle cx="15" cy="15" r="15" fill="#C9DEFF"/>
<path d="M20.93 8.88375C20.755 8.3675 20.265 8 19.6875 8H10.0625C9.485 8 9.00375 8.3675 8.82 8.88375L7 14.125V21.125C7 21.6062 7.39375 22 7.875 22H8.75C9.23125 22 9.625 21.6062 9.625 21.125V20.25H20.125V21.125C20.125 21.6062 20.5188 22 21 22H21.875C22.3562 22 22.75 21.6062 22.75 21.125V14.125L20.93 8.88375ZM10.3687 9.75H19.3725L20.3175 12.4712H9.42375L10.3687 9.75ZM21 18.5H8.75V14.125H21V18.5Z" fill="#3687FF"/>
<path d="M10.9375 18.5C11.6624 18.5 12.25 17.9124 12.25 17.1875C12.25 16.4626 11.6624 15.875 10.9375 15.875C10.2126 15.875 9.625 16.4626 9.625 17.1875C9.625 17.9124 10.2126 18.5 10.9375 18.5Z" fill="#3687FF"/>
<path d="M18.8125 18.5C19.5374 18.5 20.125 17.9124 20.125 17.1875C20.125 16.4626 19.5374 15.875 18.8125 15.875C18.0876 15.875 17.5 16.4626 17.5 17.1875C17.5 17.9124 18.0876 18.5 18.8125 18.5Z" fill="#3687FF"/>
</svg>
