<svg width="32" height="32" viewBox="0 0 32 32" fill="none" xmlns="http://www.w3.org/2000/svg">
<circle cx="16" cy="16" r="15" fill="#C9DEFF"/>
<path d="M24.02 14.8298H9V20.5598H24.02V14.8298Z" stroke="#3687FF" stroke-width="1.69" stroke-linecap="round" stroke-linejoin="round"/>
<path d="M24.02 14.83H9L10.94 10H22.08L24.02 14.83Z" stroke="#3687FF" stroke-width="1.69" stroke-linecap="round" stroke-linejoin="round"/>
<path d="M12.1899 18.8398C12.7422 18.8398 13.1899 18.3921 13.1899 17.8398C13.1899 17.2876 12.7422 16.8398 12.1899 16.8398C11.6377 16.8398 11.1899 17.2876 11.1899 17.8398C11.1899 18.3921 11.6377 18.8398 12.1899 18.8398Z" fill="#3687FF"/>
<path d="M20.7 18.8398C21.2522 18.8398 21.7 18.3921 21.7 17.8398C21.7 17.2876 21.2522 16.8398 20.7 16.8398C20.1477 16.8398 19.7 17.2876 19.7 17.8398C19.7 18.3921 20.1477 18.8398 20.7 18.8398Z" fill="#3687FF"/>
<path d="M11.6499 21.0798H10.6799V22.8898H11.6499V21.0798Z" stroke="#3687FF" stroke-width="1.69" stroke-linecap="round" stroke-linejoin="round"/>
<path d="M22.42 21.0798H21.45V22.8898H22.42V21.0798Z" stroke="#3687FF" stroke-width="1.69" stroke-linecap="round" stroke-linejoin="round"/>
</svg>
