<svg width="24" height="24" viewBox="0 0 24 24" fill="none" xmlns="http://www.w3.org/2000/svg">
<path d="M20 18.4615H9C8.45 18.4615 7.97933 18.2809 7.588 17.9197C7.196 17.5579 7 17.1231 7 16.6154V3.69231C7 3.18462 7.196 2.74985 7.588 2.38801C7.97933 2.02678 8.45 1.84616 9 1.84616H16L22 7.38462V16.6154C22 17.1231 21.8043 17.5579 21.413 17.9197C21.021 18.2809 20.55 18.4615 20 18.4615ZM15 8.3077V3.69231H9V16.6154H20V8.3077H15ZM5 22.1539C4.45 22.1539 3.97933 21.9732 3.588 21.612C3.196 21.2502 3 20.8154 3 20.3077V7.38462H5V20.3077H16V22.1539H5Z" fill="white"/>
</svg>
