<svg width="30" height="30" viewBox="0 0 30 30" fill="none" xmlns="http://www.w3.org/2000/svg">
<circle cx="15" cy="15" r="15" fill="#C9DEFF"/>
<path fill-rule="evenodd" clip-rule="evenodd" d="M17.26 10.13C17.26 8.96 16.31 8 15.13 8C13.96 8 13 8.96 13 10.13C13 11.3 13.96 12.26 15.13 12.26C16.3 12.26 17.26 11.3 17.26 10.13ZM11 10.13C11 7.85 12.85 6 15.13 6C17.41 6 19.26 7.85 19.26 10.13C19.26 12.41 17.41 14.26 15.13 14.26C12.85 14.26 11 12.41 11 10.13ZM20.8892 19.3699C20.4987 18.8999 18.4406 17.9199 15 17.9199C11.5594 17.9199 9.50132 18.8999 9.11082 19.3699V21.0699H20.8892V19.3699ZM7 19.2399C7 17.4099 10.5778 15.9199 15 15.9199C19.4222 15.9199 23 17.4099 23 19.2399V23.0699H7V19.2399Z" fill="#3687FF"/>
</svg>
