<svg width="24" height="24" viewBox="0 0 24 24" fill="none" xmlns="http://www.w3.org/2000/svg">
<path fill-rule="evenodd" clip-rule="evenodd" d="M14.26 7.13C14.26 5.96 13.31 5 12.13 5C10.96 5 10 5.96 10 7.13C10 8.3 10.96 9.26001 12.13 9.26001C13.3 9.26001 14.26 8.3 14.26 7.13ZM8 7.13C8 4.85 9.84999 3 12.13 3C14.41 3 16.26 4.85 16.26 7.13C16.26 9.41 14.41 11.26 12.13 11.26C9.84999 11.26 8 9.41 8 7.13ZM17.8892 16.3699C17.4987 15.8999 15.4406 14.9199 12 14.9199C8.55937 14.9199 6.50132 15.8999 6.11082 16.3699V18.0699H17.8892V16.3699ZM4 16.2399C4 14.4099 7.57784 12.9199 12 12.9199C16.4222 12.9199 20 14.4099 20 16.2399V20.0699H4V16.2399Z" fill="#3687FF"/>
</svg>
