<svg width="32" height="32" viewBox="0 0 32 32" fill="none" xmlns="http://www.w3.org/2000/svg">
<circle cx="16" cy="16" r="15" fill="#C9DEFF"/>
<path fill-rule="evenodd" clip-rule="evenodd" d="M18.26 11.13C18.26 9.96 17.31 9 16.13 9C14.96 9 14 9.96 14 11.13C14 12.3 14.96 13.26 16.13 13.26C17.3 13.26 18.26 12.3 18.26 11.13ZM12 11.13C12 8.85 13.85 7 16.13 7C18.41 7 20.26 8.85 20.26 11.13C20.26 13.41 18.41 15.26 16.13 15.26C13.85 15.26 12 13.41 12 11.13ZM21.8892 20.3699C21.4987 19.8999 19.4406 18.9199 16 18.9199C12.5594 18.9199 10.5013 19.8999 10.1108 20.3699V22.0699H21.8892V20.3699ZM8 20.2399C8 18.4099 11.5778 16.9199 16 16.9199C20.4222 16.9199 24 18.4099 24 20.2399V24.0699H8V20.2399Z" fill="#3687FF"/>
</svg>
