<svg width="15" height="19" viewBox="0 0 15 19" fill="none" xmlns="http://www.w3.org/2000/svg">
<path d="M7.33758 9.67197C7.84204 9.67197 8.27404 9.4922 8.63358 9.13266C8.99312 8.77312 9.17259 8.34143 9.17197 7.83758C9.17197 7.33312 8.9922 6.90112 8.63266 6.54158C8.27312 6.18204 7.84143 6.00257 7.33758 6.00318C6.83312 6.00318 6.40112 6.18296 6.04158 6.5425C5.68204 6.90204 5.50257 7.33373 5.50318 7.83758C5.50318 8.34204 5.68296 8.77404 6.0425 9.13358C6.40204 9.49312 6.83373 9.67259 7.33758 9.67197ZM7.33758 18.5C7.21529 18.5 7.09299 18.4771 6.9707 18.4312C6.84841 18.3853 6.7414 18.3242 6.64968 18.2478C4.41783 16.2758 2.75159 14.4451 1.65096 12.7556C0.550319 11.0661 0 9.48792 0 8.02102C0 5.72803 0.737733 3.90127 2.2132 2.54076C3.68866 1.18025 5.39679 0.5 7.33758 0.5C9.27898 0.5 10.9874 1.18025 12.4629 2.54076C13.9383 3.90127 14.6758 5.72803 14.6752 8.02102C14.6752 9.48853 14.1248 11.067 13.0242 12.7565C11.9236 14.446 10.2573 16.2764 8.02548 18.2478C7.93376 18.3242 7.82675 18.3853 7.70446 18.4312C7.58217 18.4771 7.45987 18.5 7.33758 18.5Z" fill="#576981"/>
</svg>
