<svg width="24" height="24" viewBox="0 0 24 24" fill="none" xmlns="http://www.w3.org/2000/svg">
<path d="M2.75 11.5C2.75 11.0858 2.41421 10.75 2 10.75C1.58579 10.75 1.25 11.0858 1.25 11.5H2.75ZM20.25 11.5C20.25 16.3325 16.3325 20.25 11.5 20.25V21.75C17.1609 21.75 21.75 17.1609 21.75 11.5H20.25ZM11.5 20.25C6.66751 20.25 2.75 16.3325 2.75 11.5H1.25C1.25 17.1609 5.83908 21.75 11.5 21.75V20.25ZM11.5 2.75C16.3325 2.75 20.25 6.66751 20.25 11.5H21.75C21.75 5.83908 17.1609 1.25 11.5 1.25V2.75ZM4.09653 6.83388C5.64775 4.37825 8.384 2.75 11.5 2.75V1.25C7.84805 1.25 4.64284 3.1604 2.82836 6.03278L4.09653 6.83388Z" fill="#9FAABA"/>
<path d="M3.2666 2V7.06667H8.33327" stroke="#9FAABA" stroke-width="1.5" stroke-linecap="round" stroke-linejoin="round"/>
<rect x="11" y="6.47058" width="1.5" height="6" rx="0.75" fill="#9FAABA"/>
<path d="M16.6901 13.3603C17.0488 13.5674 17.1717 14.0261 16.9646 14.3848C16.7575 14.7435 16.2988 14.8664 15.9401 14.6593L12.043 12.4093C11.6842 12.2022 11.5613 11.7435 11.7684 11.3848C11.9756 11.0261 12.4342 10.9032 12.793 11.1103L16.6901 13.3603Z" fill="#9FAABA"/>
</svg>
