<svg width="24" height="24" viewBox="0 0 24 24" fill="none" xmlns="http://www.w3.org/2000/svg">
<path d="M20.4444 22L13.4444 15C12.8889 15.4444 12.25 15.7963 11.5278 16.0556C10.8056 16.3148 10.037 16.4444 9.22222 16.4444C7.2037 16.4444 5.49556 15.7452 4.09778 14.3467C2.7 12.9481 2.00074 11.24 2 9.22222C2 7.2037 2.69926 5.49556 4.09778 4.09778C5.4963 2.7 7.20444 2.00074 9.22222 2C11.2407 2 12.9489 2.69926 14.3467 4.09778C15.7444 5.4963 16.4437 7.20444 16.4444 9.22222C16.4444 10.037 16.3148 10.8056 16.0556 11.5278C15.7963 12.25 15.4444 12.8889 15 13.4444L22 20.4444L20.4444 22ZM9.22222 14.2222C10.6111 14.2222 11.7919 13.7359 12.7644 12.7633C13.737 11.7907 14.223 10.6104 14.2222 9.22222C14.2222 7.83333 13.7359 6.65259 12.7633 5.68C11.7907 4.70741 10.6104 4.22148 9.22222 4.22222C7.83333 4.22222 6.65259 4.70852 5.68 5.68111C4.70741 6.6537 4.22148 7.83407 4.22222 9.22222C4.22222 10.6111 4.70852 11.7919 5.68111 12.7644C6.6537 13.737 7.83407 14.223 9.22222 14.2222Z" fill="#0066FF"/>
</svg>
