<svg width="24" height="24" viewBox="0 0 24 24" fill="none" xmlns="http://www.w3.org/2000/svg">
<path fill-rule="evenodd" clip-rule="evenodd" d="M12.7071 3.29289C12.5196 3.10536 12.2652 3 12 3C11.7348 3 11.4804 3.10536 11.2929 3.29289L8.29289 6.29289C7.90237 6.68342 7.90237 7.31658 8.29289 7.70711C8.68342 8.09763 9.31658 8.09763 9.70711 7.70711L11 6.41421V13.97C11 14.5223 11.4477 14.97 12 14.97C12.5523 14.97 13 14.5223 13 13.97V6.41421L14.2929 7.70711C14.6834 8.09763 15.3166 8.09763 15.7071 7.70711C16.0976 7.31658 16.0976 6.68342 15.7071 6.29289L12.7071 3.29289ZM3 10C3 9.44772 3.44772 9 4 9H7.26374C7.81603 9 8.26374 9.44772 8.26374 10C8.26374 10.5523 7.81603 11 7.26374 11H5V19H19V11H16.9912C16.439 11 15.9912 10.5523 15.9912 10C15.9912 9.44772 16.439 9 16.9912 9H20C20.5523 9 21 9.44772 21 10V20C21 20.5523 20.5523 21 20 21H4C3.44772 21 3 20.5523 3 20V10Z" fill="#3687FF"/>
</svg>
