<svg width="24" height="24" viewBox="0 0 24 24" fill="none" xmlns="http://www.w3.org/2000/svg">
<path d="M17.3333 15.5156C16.6578 15.5156 16.0533 15.7822 15.5911 16.2L9.25333 12.5111C9.29778 12.3067 9.33333 12.1022 9.33333 11.8889C9.33333 11.6756 9.29778 11.4711 9.25333 11.2667L15.52 7.61333C16 8.05778 16.6311 8.33333 17.3333 8.33333C18.8089 8.33333 20 7.14222 20 5.66667C20 4.19111 18.8089 3 17.3333 3C15.8578 3 14.6667 4.19111 14.6667 5.66667C14.6667 5.88 14.7022 6.08444 14.7467 6.28889L8.48 9.94222C8 9.49778 7.36889 9.22222 6.66667 9.22222C5.19111 9.22222 4 10.4133 4 11.8889C4 13.3644 5.19111 14.5556 6.66667 14.5556C7.36889 14.5556 8 14.28 8.48 13.8356L14.8089 17.5333C14.7644 17.72 14.7378 17.9156 14.7378 18.1111C14.7378 19.5422 15.9022 20.7067 17.3333 20.7067C18.7644 20.7067 19.9289 19.5422 19.9289 18.1111C19.9289 16.68 18.7644 15.5156 17.3333 15.5156ZM17.3333 4.77778C17.8222 4.77778 18.2222 5.17778 18.2222 5.66667C18.2222 6.15556 17.8222 6.55556 17.3333 6.55556C16.8444 6.55556 16.4444 6.15556 16.4444 5.66667C16.4444 5.17778 16.8444 4.77778 17.3333 4.77778ZM6.66667 12.7778C6.17778 12.7778 5.77778 12.3778 5.77778 11.8889C5.77778 11.4 6.17778 11 6.66667 11C7.15556 11 7.55556 11.4 7.55556 11.8889C7.55556 12.3778 7.15556 12.7778 6.66667 12.7778ZM17.3333 19.0178C16.8444 19.0178 16.4444 18.6178 16.4444 18.1289C16.4444 17.64 16.8444 17.24 17.3333 17.24C17.8222 17.24 18.2222 17.64 18.2222 18.1289C18.2222 18.6178 17.8222 19.0178 17.3333 19.0178Z" fill="#3687FF"/>
</svg>
