<svg width="24" height="24" viewBox="0 0 24 24" fill="none" xmlns="http://www.w3.org/2000/svg">
<path d="M11.5223 12.1529C11.9707 12.1529 12.3547 11.9931 12.6743 11.6735C12.9939 11.3539 13.1534 10.9702 13.1529 10.5223C13.1529 10.0739 12.9931 9.68989 12.6735 9.37029C12.3539 9.0507 11.9702 8.89118 11.5223 8.89172C11.0739 8.89172 10.6899 9.05152 10.3703 9.37111C10.0507 9.6907 9.89118 10.0744 9.89172 10.5223C9.89172 10.9707 10.0515 11.3547 10.3711 11.6743C10.6907 11.9939 11.0744 12.1534 11.5223 12.1529ZM11.5223 20C11.4136 20 11.3049 19.9796 11.1962 19.9389C11.0875 19.8981 10.9924 19.8437 10.9108 19.7758C8.92696 18.0229 7.44586 16.3956 6.46752 14.8939C5.48917 13.3921 5 11.9893 5 10.6854C5 8.64713 5.65576 7.02335 6.96729 5.81401C8.27881 4.60467 9.79715 4 11.5223 4C13.248 4 14.7666 4.60467 16.0781 5.81401C17.3896 7.02335 18.0451 8.64713 18.0446 10.6854C18.0446 11.9898 17.5554 13.3929 16.5771 14.8947C15.5987 16.3964 14.1176 18.0235 12.1338 19.7758C12.0522 19.8437 11.9571 19.8981 11.8484 19.9389C11.7397 19.9796 11.631 20 11.5223 20Z" fill="#576981"/>
</svg>
