<svg width="14" height="16" viewBox="0 0 14 16" fill="none" xmlns="http://www.w3.org/2000/svg">
<path d="M6.52229 8.15287C6.9707 8.15287 7.3547 7.99307 7.67429 7.67348C7.99389 7.35389 8.15341 6.97016 8.15287 6.52229C8.15287 6.07389 7.99307 5.68989 7.67348 5.37029C7.35389 5.0507 6.97016 4.89118 6.52229 4.89172C6.07389 4.89172 5.68989 5.05152 5.37029 5.37111C5.0507 5.6907 4.89118 6.07443 4.89172 6.52229C4.89172 6.9707 5.05152 7.3547 5.37111 7.67429C5.6907 7.99389 6.07443 8.15341 6.52229 8.15287ZM6.52229 16C6.41359 16 6.30488 15.9796 6.19618 15.9389C6.08747 15.8981 5.99236 15.8437 5.91083 15.7758C3.92696 14.0229 2.44586 12.3956 1.46752 10.8939C0.489172 9.3921 0 7.98927 0 6.68535C0 4.64713 0.655762 3.02335 1.96729 1.81401C3.27881 0.604671 4.79715 0 6.52229 0C8.24798 0 9.76659 0.604671 11.0781 1.81401C12.3896 3.02335 13.0451 4.64713 13.0446 6.68535C13.0446 7.98981 12.5554 9.39292 11.5771 10.8947C10.5987 12.3964 9.11762 14.0235 7.13376 15.7758C7.05223 15.8437 6.95711 15.8981 6.84841 15.9389C6.7397 15.9796 6.631 16 6.52229 16Z" fill="#576981"/>
</svg>
