<svg width="24" height="24" viewBox="0 0 24 24" fill="none" xmlns="http://www.w3.org/2000/svg">
<path d="M7.29167 14.4583L5.54167 12.6667C6.36111 11.8472 7.32306 11.1981 8.4275 10.7192C9.53194 10.2403 10.7228 10.0006 12 10C13.2778 10 14.4689 10.2431 15.5733 10.7292C16.6778 11.2153 17.6394 11.875 18.4583 12.7083L16.7083 14.4583C16.0972 13.8472 15.3889 13.3681 14.5833 13.0208C13.7778 12.6736 12.9167 12.5 12 12.5C11.0833 12.5 10.2222 12.6736 9.41667 13.0208C8.61111 13.3681 7.90278 13.8472 7.29167 14.4583ZM3.75 10.9167L2 9.16667C3.27778 7.86111 4.77083 6.84028 6.47917 6.10417C8.1875 5.36806 10.0278 5 12 5C13.9722 5 15.8125 5.36806 17.5208 6.10417C19.2292 6.84028 20.7222 7.86111 22 9.16667L20.25 10.9167C19.1806 9.84722 17.9408 9.01028 16.5308 8.40583C15.1208 7.80139 13.6106 7.49944 12 7.5C10.3889 7.5 8.87833 7.80222 7.46833 8.40667C6.05833 9.01111 4.81889 9.84778 3.75 10.9167ZM12 19.1667L14.9375 16.2083C14.5625 15.8333 14.125 15.5381 13.625 15.3225C13.125 15.1069 12.5833 14.9994 12 15C11.4167 15 10.875 15.1078 10.375 15.3233C9.875 15.5389 9.4375 15.8339 9.0625 16.2083L12 19.1667Z" fill="#3687FF"/>
</svg>
